<svg width="44" height="44" viewBox="0 0 44 44" fill="none" xmlns="http://www.w3.org/2000/svg">
<g clip-path="url(#clip0_8_1186)">
<g filter="url(#filter0_d_8_1186)">
<path d="M14.157 39.9098C14.4867 40.1837 14.9018 40.3335 15.3303 40.3333L34.8333 40.3333C35.8058 40.3333 36.7384 39.947 37.4261 39.2594C38.1137 38.5717 38.5 37.6391 38.5 36.6666L38.5 23.4483C38.4997 22.5462 38.1668 21.676 37.5651 21.0039C36.9634 20.3318 36.135 19.9052 35.2385 19.8055L22 18.3333L22 7.33331C22 6.36085 21.6137 5.42822 20.9261 4.74059C20.2384 4.05295 19.3058 3.66664 18.3333 3.66664C17.3609 3.66664 16.4282 4.05295 15.7406 4.74059C15.053 5.42822 14.6667 6.36085 14.6667 7.33331L14.6667 29.3333L9.11166 27.1113C8.64758 26.9258 8.15049 26.837 7.65088 26.8505C7.15127 26.864 6.65968 26.9795 6.20629 27.1898C5.7529 27.4001 5.34726 27.7008 5.01426 28.0735C4.68127 28.4462 4.42795 28.883 4.26983 29.3571L4.06266 29.9805C3.94582 30.3302 3.9374 30.7071 4.03849 31.0618C4.13958 31.4164 4.34547 31.7322 4.62917 31.9678L14.157 39.9098Z" fill="#4E75FF"/>
<path d="M15.3303 39.8333L15.3301 39.8333C15.0185 39.8334 14.7167 39.7245 14.4769 39.5255C14.4767 39.5254 14.4766 39.5253 14.4765 39.5252L4.94931 31.5837L4.94859 31.5831C4.74242 31.4119 4.5928 31.1824 4.51933 30.9247C4.44587 30.667 4.45199 30.3931 4.5369 30.1389L4.53714 30.1382L4.74415 29.5153C4.88072 29.1058 5.09952 28.7285 5.38712 28.4066C5.67473 28.0847 6.02508 27.825 6.41668 27.6434C6.80828 27.4617 7.23286 27.362 7.66438 27.3504C8.09586 27.3387 8.52517 27.4153 8.92597 27.5755C8.926 27.5756 8.92603 27.5756 8.92606 27.5756L14.481 29.7975L15.1667 30.0718L15.1667 29.3333L15.1667 7.33331C15.1667 6.49346 15.5003 5.68801 16.0942 5.09414C16.688 4.50028 17.4935 4.16664 18.3333 4.16664C19.1732 4.16664 19.9786 4.50028 20.5725 5.09414C21.1664 5.68801 21.5 6.49346 21.5 7.33331L21.5 18.3333L21.5 18.7808L21.9447 18.8302L35.1832 20.3024L35.2385 19.8055L35.1833 20.3024C35.9575 20.3885 36.6729 20.757 37.1926 21.3374C37.7122 21.9178 37.9997 22.6693 38 23.4483C38 23.4484 38 23.4484 38 23.4485L38 36.6666C38 37.5065 37.6664 38.312 37.0725 38.9058C36.4786 39.4997 35.6732 39.8333 34.8333 39.8333L15.3303 39.8333Z" stroke="black"/>
</g>
</g>
<defs>
<filter id="filter0_d_8_1186" x="-0.0316162" y="3.66663" width="42.5316" height="44.6667" filterUnits="userSpaceOnUse" color-interpolation-filters="sRGB">
<feFlood flood-opacity="0" result="BackgroundImageFix"/>
<feColorMatrix in="SourceAlpha" type="matrix" values="0 0 0 0 0 0 0 0 0 0 0 0 0 0 0 0 0 0 127 0" result="hardAlpha"/>
<feOffset dy="4"/>
<feGaussianBlur stdDeviation="2"/>
<feComposite in2="hardAlpha" operator="out"/>
<feColorMatrix type="matrix" values="0 0 0 0 0 0 0 0 0 0 0 0 0 0 0 0 0 0 0.25 0"/>
<feBlend mode="normal" in2="BackgroundImageFix" result="effect1_dropShadow_8_1186"/>
<feBlend mode="normal" in="SourceGraphic" in2="effect1_dropShadow_8_1186" result="shape"/>
</filter>
<clipPath id="clip0_8_1186">
<rect width="44" height="44" fill="white" transform="translate(44 44) rotate(-180)"/>
</clipPath>
</defs>
</svg>
